<svg width="312" height="113" viewBox="0 0 312 113" fill="none" xmlns="http://www.w3.org/2000/svg">
<path d="M29.4721 41.026V5.53903V1H240.331V41.026H268.803V86.829L293.149 112H23.6952L1 86.829V41.026H29.4721Z" fill="black" stroke="black"/>
<path d="M87.7642 14.7168H85.5942V34.2468H87.7642V41.3644H71.359V34.2468H73.4422V19.0568L66.0642 41.3644H59.641L52.046 19.2738V34.2468H54.1292V41.3644H39.894V34.2468H42.064V14.7168H39.894V7.59918H59.7712L64.2848 21.14L68.6248 7.59918H87.7642V14.7168ZM105.713 41.972C101.171 41.972 97.6556 40.9738 95.1673 38.9774C92.708 36.981 91.4783 33.7404 91.4783 29.2558V14.7168H89.3083V7.59918H105.366V14.7168H103.63V31.4692C103.63 32.424 103.833 33.1328 104.238 33.5958C104.672 34.0298 105.308 34.2468 106.147 34.2468C106.987 34.2468 107.609 34.0298 108.014 33.5958C108.448 33.1328 108.665 32.424 108.665 31.4692V14.7168H106.929V7.59918H121.815V14.7168H119.645V29.2558C119.645 33.7404 118.444 36.981 116.043 38.9774C113.641 40.9738 110.198 41.972 105.713 41.972ZM148.387 7.59918H162.622V14.7168H160.452V41.3644H148.256L135.54 21.791V34.2468H137.623V41.3644H123.388V34.2468H125.558V14.7168H123.388V7.59918H139.056L150.47 25.0026V14.7168H148.387V7.59918ZM181.127 41.972C175.658 41.972 171.434 40.5832 168.454 37.8056C165.503 35.028 164.027 30.5867 164.027 24.4818C164.027 12.8216 169.698 6.99158 181.04 6.99158C183.789 6.99158 186.335 7.32431 188.678 7.98978C191.051 8.65524 192.816 9.39304 193.973 10.2032V21.0532H183.557V17.9284C183.557 16.8289 183.311 16.0188 182.819 15.498C182.327 14.9772 181.59 14.7168 180.606 14.7168C179.622 14.7168 178.884 14.9772 178.393 15.498C177.901 16.0188 177.655 16.8289 177.655 17.9284V31.0352C177.655 32.1346 177.901 32.9448 178.393 33.4656C178.884 33.9864 179.622 34.2468 180.606 34.2468C181.59 34.2468 182.327 33.9864 182.819 33.4656C183.311 32.9448 183.557 32.1346 183.557 31.0352V27.5198H193.973V38.7604C192.787 39.5705 191.022 40.3083 188.678 40.9738C186.364 41.6392 183.846 41.972 181.127 41.972ZM230.328 14.7168H228.158V34.2468H230.328V41.3644H213.923V34.2468H216.006V27.0858H209.93V34.2468H212.014V41.3644H195.608V34.2468H197.778V14.7168H195.608V7.59918H212.014V14.7168H209.93V21.3136H216.006V14.7168H213.923V7.59918H230.328V14.7168ZM58.9651 53.7168H56.7951V73.2468H58.9651V80.3644H42.5599V73.2468H44.6431V58.0568L37.2651 80.3644H30.8419L23.2469 58.2738V73.2468H25.3301V80.3644H11.0949V73.2468H13.2649V53.7168H11.0949V46.5992H30.9721L35.4857 60.14L39.8257 46.5992H58.9651V53.7168ZM92.5384 73.2468H94.2744V80.3644H77.2616V73.2468H79.8656L79.1712 69.7748H73.2688L72.5744 73.2468H75.1784V80.3644H60.3356V73.2468H62.0716L69.4062 46.5992H85.2038L92.5384 73.2468ZM74.2236 65.1744H78.2164L76.437 56.5378H76.003L74.2236 65.1744ZM95.6486 73.2468H97.8186V53.7602H95.6486V46.5992H113.269C118.101 46.5992 121.935 47.9301 124.77 50.592C127.634 53.2249 129.067 57.5215 129.067 63.4818C129.067 69.442 127.634 73.7531 124.77 76.415C121.935 79.0479 118.101 80.3644 113.269 80.3644H95.6486V73.2468ZM112.488 73.2468C113.472 73.2468 114.209 72.9864 114.701 72.4656C115.193 71.9448 115.439 71.1346 115.439 70.0352V56.9284C115.439 54.7873 114.455 53.7168 112.488 53.7168H109.971V73.2468H112.488ZM155.528 46.5992H169.763V53.7168H167.593V80.3644H155.398L142.682 60.791V73.2468H144.765V80.3644H130.53V73.2468H132.7V53.7168H130.53V46.5992H146.197L157.611 64.0026V53.7168H155.528V46.5992ZM171.429 80.3644V73.2468H173.599V53.7168H171.429V46.5992H200.724V59.706H191.002V53.7168H185.751V60.574H189.57V65.5216H185.751V73.2468H191.002V66.3896H200.724V80.3644H171.429ZM215.823 80.972C213.045 80.972 210.412 80.7405 207.924 80.2776C205.464 79.7857 203.569 79.236 202.238 78.6284V70.0352H211.786C211.786 70.9321 211.989 71.5831 212.394 71.9882C212.799 72.3932 213.537 72.5958 214.607 72.5958C215.504 72.5958 216.141 72.4656 216.517 72.2052C216.922 71.9158 217.125 71.4963 217.125 70.9466C217.125 70.4836 216.936 70.093 216.56 69.7748C216.184 69.4276 215.533 69.0804 214.607 68.7332L210.875 67.4312C207.663 66.216 205.349 64.7838 203.931 63.1346C202.542 61.4854 201.848 59.2575 201.848 56.451C201.848 53.0368 202.962 50.4473 205.19 48.6824C207.446 46.8885 211.193 45.9916 216.43 45.9916C218.947 45.9916 221.305 46.252 223.504 46.7728C225.732 47.2646 227.526 47.9301 228.886 48.7692V56.5378H220.206C220.206 55.0911 219.309 54.3678 217.515 54.3678C216.647 54.3678 216.025 54.4835 215.649 54.715C215.302 54.9175 215.128 55.2936 215.128 55.8434C215.128 56.3352 215.331 56.7258 215.736 57.0152C216.17 57.3045 216.864 57.6083 217.819 57.9266L221.595 59.2286C224.662 60.2702 226.89 61.63 228.278 63.3082C229.696 64.9574 230.405 67.1274 230.405 69.8182C230.405 73.4927 229.161 76.2703 226.673 78.151C224.213 80.0316 220.597 80.972 215.823 80.972ZM245.067 80.972C242.289 80.972 239.656 80.7405 237.168 80.2776C234.709 79.7857 232.813 79.236 231.482 78.6284V70.0352H241.03C241.03 70.9321 241.233 71.5831 241.638 71.9882C242.043 72.3932 242.781 72.5958 243.851 72.5958C244.748 72.5958 245.385 72.4656 245.761 72.2052C246.166 71.9158 246.369 71.4963 246.369 70.9466C246.369 70.4836 246.181 70.093 245.804 69.7748C245.428 69.4276 244.777 69.0804 243.851 68.7332L240.119 67.4312C236.907 66.216 234.593 64.7838 233.175 63.1346C231.786 61.4854 231.092 59.2575 231.092 56.451C231.092 53.0368 232.206 50.4473 234.434 48.6824C236.69 46.8885 240.437 45.9916 245.674 45.9916C248.191 45.9916 250.55 46.252 252.748 46.7728C254.976 47.2646 256.77 47.9301 258.13 48.7692V56.5378H249.45C249.45 55.0911 248.553 54.3678 246.759 54.3678C245.891 54.3678 245.269 54.4835 244.893 54.715C244.546 54.9175 244.372 55.2936 244.372 55.8434C244.372 56.3352 244.575 56.7258 244.98 57.0152C245.414 57.3045 246.108 57.6083 247.063 57.9266L250.839 59.2286C253.906 60.2702 256.134 61.63 257.522 63.3082C258.94 64.9574 259.649 67.1274 259.649 69.8182C259.649 73.4927 258.405 76.2703 255.917 78.151C253.457 80.0316 249.841 80.972 245.067 80.972Z" fill="white"/>
<path d="M87.7642 14.7168V16.7168H89.7642V14.7168H87.7642ZM85.5942 14.7168V12.7168H83.5942V14.7168H85.5942ZM85.5942 34.2468H83.5942V36.2468H85.5942V34.2468ZM87.7642 34.2468H89.7642V32.2468H87.7642V34.2468ZM87.7642 41.3644V43.3644H89.7642V41.3644H87.7642ZM71.359 41.3644H69.359V43.3644H71.359V41.3644ZM71.359 34.2468V32.2468H69.359V34.2468H71.359ZM73.4422 34.2468V36.2468H75.4422V34.2468H73.4422ZM73.4422 19.0568H75.4422L71.5434 18.4288L73.4422 19.0568ZM66.0642 41.3644V43.3644H67.5093L67.963 41.9924L66.0642 41.3644ZM59.641 41.3644L57.7497 42.0146L58.2137 43.3644H59.641V41.3644ZM52.046 19.2738L53.9373 18.6235L50.046 19.2738H52.046ZM52.046 34.2468H50.046V36.2468H52.046V34.2468ZM54.1292 34.2468H56.1292V32.2468H54.1292V34.2468ZM54.1292 41.3644V43.3644H56.1292V41.3644H54.1292ZM39.894 41.3644H37.894V43.3644H39.894V41.3644ZM39.894 34.2468V32.2468H37.894V34.2468H39.894ZM42.064 34.2468V36.2468H44.064V34.2468H42.064ZM42.064 14.7168H44.064V12.7168H42.064V14.7168ZM39.894 14.7168H37.894V16.7168H39.894V14.7168ZM39.894 7.59918V5.59918H37.894V7.59918H39.894ZM59.7712 7.59918L61.6686 6.96672L61.2127 5.59918H59.7712V7.59918ZM64.2848 21.14L62.3874 21.7724L64.3221 27.5764L66.1894 21.7504L64.2848 21.14ZM68.6248 7.59918V5.59918H67.1656L66.7202 6.98874L68.6248 7.59918ZM87.7642 7.59918H89.7642V5.59918H87.7642V7.59918ZM87.7642 12.7168H85.5942V16.7168H87.7642V12.7168ZM83.5942 14.7168V34.2468H87.5942V14.7168H83.5942ZM85.5942 36.2468H87.7642V32.2468H85.5942V36.2468ZM85.7642 34.2468V41.3644H89.7642V34.2468H85.7642ZM87.7642 39.3644H71.359V43.3644H87.7642V39.3644ZM73.359 41.3644V34.2468H69.359V41.3644H73.359ZM71.359 36.2468H73.4422V32.2468H71.359V36.2468ZM75.4422 34.2468V19.0568H71.4422V34.2468H75.4422ZM71.5434 18.4288L64.1654 40.7364L67.963 41.9924L75.341 19.6848L71.5434 18.4288ZM66.0642 39.3644H59.641V43.3644H66.0642V39.3644ZM61.5323 40.7141L53.9373 18.6235L50.1547 19.924L57.7497 42.0146L61.5323 40.7141ZM50.046 19.2738V34.2468H54.046V19.2738H50.046ZM52.046 36.2468H54.1292V32.2468H52.046V36.2468ZM52.1292 34.2468V41.3644H56.1292V34.2468H52.1292ZM54.1292 39.3644H39.894V43.3644H54.1292V39.3644ZM41.894 41.3644V34.2468H37.894V41.3644H41.894ZM39.894 36.2468H42.064V32.2468H39.894V36.2468ZM44.064 34.2468V14.7168H40.064V34.2468H44.064ZM42.064 12.7168H39.894V16.7168H42.064V12.7168ZM41.894 14.7168V7.59918H37.894V14.7168H41.894ZM39.894 9.59918H59.7712V5.59918H39.894V9.59918ZM57.8738 8.23163L62.3874 21.7724L66.1822 20.5075L61.6686 6.96672L57.8738 8.23163ZM66.1894 21.7504L70.5294 8.20961L66.7202 6.98874L62.3802 20.5295L66.1894 21.7504ZM68.6248 9.59918H87.7642V5.59918H68.6248V9.59918ZM85.7642 7.59918V14.7168H89.7642V7.59918H85.7642ZM95.1673 38.9774L93.9068 40.5302L93.9157 40.5373L95.1673 38.9774ZM91.4783 14.7168H93.4783V12.7168H91.4783V14.7168ZM89.3083 14.7168H87.3083V16.7168H89.3083V14.7168ZM89.3083 7.59918V5.59918H87.3083V7.59918H89.3083ZM105.366 7.59918H107.366V5.59918H105.366V7.59918ZM105.366 14.7168V16.7168H107.366V14.7168H105.366ZM103.63 14.7168V12.7168H101.63V14.7168H103.63ZM104.238 33.5958L102.733 34.9128L102.777 34.9629L102.824 35.01L104.238 33.5958ZM108.014 33.5958L106.555 32.2279L106.552 32.2311L108.014 33.5958ZM108.665 14.7168H110.665V12.7168H108.665V14.7168ZM106.929 14.7168H104.929V16.7168H106.929V14.7168ZM106.929 7.59918V5.59918H104.929V7.59918H106.929ZM121.815 7.59918H123.815V5.59918H121.815V7.59918ZM121.815 14.7168V16.7168H123.815V14.7168H121.815ZM119.645 14.7168V12.7168H117.645V14.7168H119.645ZM116.043 38.9774L114.764 37.4394L114.764 37.4394L116.043 38.9774ZM105.713 39.972C101.437 39.972 98.4287 39.0299 96.4189 37.4174L93.9157 40.5373C96.8824 42.9176 100.904 43.972 105.713 43.972V39.972ZM96.4278 37.4246C94.6075 35.947 93.4783 33.3999 93.4783 29.2558H89.4783C89.4783 34.081 90.8084 38.015 93.9068 40.5302L96.4278 37.4246ZM93.4783 29.2558V14.7168H89.4783V29.2558H93.4783ZM91.4783 12.7168H89.3083V16.7168H91.4783V12.7168ZM91.3083 14.7168V7.59918H87.3083V14.7168H91.3083ZM89.3083 9.59918H105.366V5.59918H89.3083V9.59918ZM103.366 7.59918V14.7168H107.366V7.59918H103.366ZM105.366 12.7168H103.63V16.7168H105.366V12.7168ZM101.63 14.7168V31.4692H105.63V14.7168H101.63ZM101.63 31.4692C101.63 32.6527 101.873 33.9303 102.733 34.9128L105.743 32.2788C105.769 32.3089 105.741 32.2939 105.705 32.1675C105.667 32.0354 105.63 31.8123 105.63 31.4692H101.63ZM102.824 35.01C103.753 35.9398 104.977 36.2468 106.147 36.2468V32.2468C105.895 32.2468 105.752 32.2136 105.686 32.191C105.629 32.1716 105.633 32.1622 105.652 32.1816L102.824 35.01ZM106.147 36.2468C107.307 36.2468 108.558 35.944 109.476 34.9604L106.552 32.2311C106.594 32.1859 106.624 32.1821 106.585 32.1956C106.534 32.2132 106.401 32.2468 106.147 32.2468V36.2468ZM109.473 34.9637C110.394 33.9806 110.665 32.6814 110.665 31.4692H106.665C106.665 32.1665 106.501 32.2851 106.555 32.2279L109.473 34.9637ZM110.665 31.4692V14.7168H106.665V31.4692H110.665ZM108.665 12.7168H106.929V16.7168H108.665V12.7168ZM108.929 14.7168V7.59918H104.929V14.7168H108.929ZM106.929 9.59918H121.815V5.59918H106.929V9.59918ZM119.815 7.59918V14.7168H123.815V7.59918H119.815ZM121.815 12.7168H119.645V16.7168H121.815V12.7168ZM117.645 14.7168V29.2558H121.645V14.7168H117.645ZM117.645 29.2558C117.645 33.4145 116.536 35.9665 114.764 37.4394L117.321 40.5153C120.352 37.9955 121.645 34.0664 121.645 29.2558H117.645ZM114.764 37.4394C112.85 39.0307 109.93 39.972 105.713 39.972V43.972C110.466 43.972 114.432 42.9169 117.321 40.5153L114.764 37.4394ZM148.387 7.59918V5.59918H146.387V7.59918H148.387ZM162.622 7.59918H164.622V5.59918H162.622V7.59918ZM162.622 14.7168V16.7168H164.622V14.7168H162.622ZM160.452 14.7168V12.7168H158.452V14.7168H160.452ZM160.452 41.3644V43.3644H162.452V41.3644H160.452ZM148.256 41.3644L146.579 42.454L147.171 43.3644H148.256V41.3644ZM135.54 21.791L137.217 20.7014L133.54 15.0414V21.791H135.54ZM135.54 34.2468H133.54V36.2468H135.54V34.2468ZM137.623 34.2468H139.623V32.2468H137.623V34.2468ZM137.623 41.3644V43.3644H139.623V41.3644H137.623ZM123.388 41.3644H121.388V43.3644H123.388V41.3644ZM123.388 34.2468V32.2468H121.388V34.2468H123.388ZM125.558 34.2468V36.2468H127.558V34.2468H125.558ZM125.558 14.7168H127.558V12.7168H125.558V14.7168ZM123.388 14.7168H121.388V16.7168H123.388V14.7168ZM123.388 7.59918V5.59918H121.388V7.59918H123.388ZM139.056 7.59918L140.728 6.50232L140.136 5.59918H139.056V7.59918ZM150.47 25.0026L148.797 26.0994L152.47 31.6988V25.0026H150.47ZM150.47 14.7168H152.47V12.7168H150.47V14.7168ZM148.387 14.7168H146.387V16.7168H148.387V14.7168ZM148.387 9.59918H162.622V5.59918H148.387V9.59918ZM160.622 7.59918V14.7168H164.622V7.59918H160.622ZM162.622 12.7168H160.452V16.7168H162.622V12.7168ZM158.452 14.7168V41.3644H162.452V14.7168H158.452ZM160.452 39.3644H148.256V43.3644H160.452V39.3644ZM149.933 40.2748L137.217 20.7014L133.863 22.8806L146.579 42.454L149.933 40.2748ZM133.54 21.791V34.2468H137.54V21.791H133.54ZM135.54 36.2468H137.623V32.2468H135.54V36.2468ZM135.623 34.2468V41.3644H139.623V34.2468H135.623ZM137.623 39.3644H123.388V43.3644H137.623V39.3644ZM125.388 41.3644V34.2468H121.388V41.3644H125.388ZM123.388 36.2468H125.558V32.2468H123.388V36.2468ZM127.558 34.2468V14.7168H123.558V34.2468H127.558ZM125.558 12.7168H123.388V16.7168H125.558V12.7168ZM125.388 14.7168V7.59918H121.388V14.7168H125.388ZM123.388 9.59918H139.056V5.59918H123.388V9.59918ZM137.383 8.69603L148.797 26.0994L152.142 23.9057L140.728 6.50232L137.383 8.69603ZM152.47 25.0026V14.7168H148.47V25.0026H152.47ZM150.47 12.7168H148.387V16.7168H150.47V12.7168ZM150.387 14.7168V7.59918H146.387V14.7168H150.387ZM168.454 37.8056L167.083 39.262L167.09 39.2686L168.454 37.8056ZM188.678 7.98978L188.132 9.91373L188.138 9.91546L188.678 7.98978ZM193.973 10.2032H195.973V9.16186L195.12 8.56471L193.973 10.2032ZM193.973 21.0532V23.0532H195.973V21.0532H193.973ZM183.557 21.0532H181.557V23.0532H183.557V21.0532ZM182.819 15.498L184.273 14.1247L184.273 14.1247L182.819 15.498ZM178.393 15.498L179.847 16.8712L179.847 16.8712L178.393 15.498ZM178.393 33.4656L179.847 32.0923L179.847 32.0923L178.393 33.4656ZM182.819 33.4656L184.273 34.8388L184.273 34.8388L182.819 33.4656ZM183.557 27.5198V25.5198H181.557V27.5198H183.557ZM193.973 27.5198H195.973V25.5198H193.973V27.5198ZM193.973 38.7604L195.101 40.412L195.973 39.8164V38.7604H193.973ZM188.678 40.9738L188.132 39.0498L188.126 39.0516L188.678 40.9738ZM181.127 39.972C175.988 39.972 172.316 38.671 169.818 36.3425L167.09 39.2686C170.552 42.4954 175.329 43.972 181.127 43.972V39.972ZM169.825 36.3492C167.44 34.1052 166.027 30.3133 166.027 24.4818H162.027C162.027 30.8601 163.565 35.9507 167.083 39.262L169.825 36.3492ZM166.027 24.4818C166.027 18.9463 167.374 15.1646 169.714 12.7586C172.044 10.3629 175.692 8.99158 181.04 8.99158V4.99158C175.046 4.99158 170.187 6.53529 166.847 9.96961C163.516 13.3937 162.027 18.3571 162.027 24.4818H166.027ZM181.04 8.99158C183.627 8.99158 185.987 9.3047 188.132 9.91372L189.225 6.06583C186.682 5.34392 183.95 4.99158 181.04 4.99158V8.99158ZM188.138 9.91546C190.43 10.5583 191.942 11.2226 192.826 11.8416L195.12 8.56471C193.69 7.56348 191.672 6.75217 189.218 6.06409L188.138 9.91546ZM191.973 10.2032V21.0532H195.973V10.2032H191.973ZM193.973 19.0532H183.557V23.0532H193.973V19.0532ZM185.557 21.0532V17.9284H181.557V21.0532H185.557ZM185.557 17.9284C185.557 16.5834 185.263 15.1728 184.273 14.1247L181.365 16.8712C181.367 16.8725 181.377 16.8834 181.393 16.9125C181.41 16.9425 181.434 16.9947 181.459 17.0771C181.511 17.2473 181.557 17.5201 181.557 17.9284H185.557ZM184.273 14.1247C183.279 13.0723 181.928 12.7168 180.606 12.7168V16.7168C180.927 16.7168 181.123 16.7599 181.231 16.7981C181.329 16.8324 181.357 16.8628 181.365 16.8712L184.273 14.1247ZM180.606 12.7168C179.284 12.7168 177.932 13.0723 176.939 14.1247L179.847 16.8712C179.855 16.8628 179.883 16.8324 179.98 16.7981C180.089 16.7599 180.285 16.7168 180.606 16.7168V12.7168ZM176.939 14.1247C175.949 15.1728 175.655 16.5834 175.655 17.9284H179.655C179.655 17.5201 179.701 17.2473 179.753 17.0771C179.778 16.9947 179.802 16.9425 179.819 16.9125C179.835 16.8834 179.845 16.8725 179.847 16.8712L176.939 14.1247ZM175.655 17.9284V31.0352H179.655V17.9284H175.655ZM175.655 31.0352C175.655 32.3802 175.949 33.7907 176.939 34.8388L179.847 32.0923C179.845 32.0911 179.835 32.0801 179.819 32.0511C179.802 32.021 179.778 31.9689 179.753 31.8864C179.701 31.7162 179.655 31.4434 179.655 31.0352H175.655ZM176.939 34.8388C177.932 35.8912 179.284 36.2468 180.606 36.2468V32.2468C180.285 32.2468 180.089 32.2037 179.98 32.1655C179.883 32.1312 179.855 32.1008 179.847 32.0923L176.939 34.8388ZM180.606 36.2468C181.928 36.2468 183.279 35.8912 184.273 34.8388L181.365 32.0923C181.357 32.1008 181.329 32.1312 181.231 32.1655C181.123 32.2037 180.927 32.2468 180.606 32.2468V36.2468ZM184.273 34.8388C185.263 33.7907 185.557 32.3802 185.557 31.0352H181.557C181.557 31.4434 181.511 31.7162 181.459 31.8864C181.434 31.9689 181.41 32.021 181.393 32.0511C181.377 32.0801 181.367 32.0911 181.365 32.0923L184.273 34.8388ZM185.557 31.0352V27.5198H181.557V31.0352H185.557ZM183.557 29.5198H193.973V25.5198H183.557V29.5198ZM191.973 27.5198V38.7604H195.973V27.5198H191.973ZM192.845 37.1088C191.918 37.7417 190.391 38.4083 188.132 39.0498L189.225 42.8977C191.652 42.2084 193.655 41.3993 195.101 40.412L192.845 37.1088ZM188.126 39.0516C186.012 39.6593 183.683 39.972 181.127 39.972V43.972C184.01 43.972 186.715 43.6192 189.231 42.8959L188.126 39.0516ZM230.328 14.7168V16.7168H232.328V14.7168H230.328ZM228.158 14.7168V12.7168H226.158V14.7168H228.158ZM228.158 34.2468H226.158V36.2468H228.158V34.2468ZM230.328 34.2468H232.328V32.2468H230.328V34.2468ZM230.328 41.3644V43.3644H232.328V41.3644H230.328ZM213.923 41.3644H211.923V43.3644H213.923V41.3644ZM213.923 34.2468V32.2468H211.923V34.2468H213.923ZM216.006 34.2468V36.2468H218.006V34.2468H216.006ZM216.006 27.0858H218.006V25.0858H216.006V27.0858ZM209.93 27.0858V25.0858H207.93V27.0858H209.93ZM209.93 34.2468H207.93V36.2468H209.93V34.2468ZM212.014 34.2468H214.014V32.2468H212.014V34.2468ZM212.014 41.3644V43.3644H214.014V41.3644H212.014ZM195.608 41.3644H193.608V43.3644H195.608V41.3644ZM195.608 34.2468V32.2468H193.608V34.2468H195.608ZM197.778 34.2468V36.2468H199.778V34.2468H197.778ZM197.778 14.7168H199.778V12.7168H197.778V14.7168ZM195.608 14.7168H193.608V16.7168H195.608V14.7168ZM195.608 7.59918V5.59918H193.608V7.59918H195.608ZM212.014 7.59918H214.014V5.59918H212.014V7.59918ZM212.014 14.7168V16.7168H214.014V14.7168H212.014ZM209.93 14.7168V12.7168H207.93V14.7168H209.93ZM209.93 21.3136H207.93V23.3136H209.93V21.3136ZM216.006 21.3136V23.3136H218.006V21.3136H216.006ZM216.006 14.7168H218.006V12.7168H216.006V14.7168ZM213.923 14.7168H211.923V16.7168H213.923V14.7168ZM213.923 7.59918V5.59918H211.923V7.59918H213.923ZM230.328 7.59918H232.328V5.59918H230.328V7.59918ZM230.328 12.7168H228.158V16.7168H230.328V12.7168ZM226.158 14.7168V34.2468H230.158V14.7168H226.158ZM228.158 36.2468H230.328V32.2468H228.158V36.2468ZM228.328 34.2468V41.3644H232.328V34.2468H228.328ZM230.328 39.3644H213.923V43.3644H230.328V39.3644ZM215.923 41.3644V34.2468H211.923V41.3644H215.923ZM213.923 36.2468H216.006V32.2468H213.923V36.2468ZM218.006 34.2468V27.0858H214.006V34.2468H218.006ZM216.006 25.0858H209.93V29.0858H216.006V25.0858ZM207.93 27.0858V34.2468H211.93V27.0858H207.93ZM209.93 36.2468H212.014V32.2468H209.93V36.2468ZM210.014 34.2468V41.3644H214.014V34.2468H210.014ZM212.014 39.3644H195.608V43.3644H212.014V39.3644ZM197.608 41.3644V34.2468H193.608V41.3644H197.608ZM195.608 36.2468H197.778V32.2468H195.608V36.2468ZM199.778 34.2468V14.7168H195.778V34.2468H199.778ZM197.778 12.7168H195.608V16.7168H197.778V12.7168ZM197.608 14.7168V7.59918H193.608V14.7168H197.608ZM195.608 9.59918H212.014V5.59918H195.608V9.59918ZM210.014 7.59918V14.7168H214.014V7.59918H210.014ZM212.014 12.7168H209.93V16.7168H212.014V12.7168ZM207.93 14.7168V21.3136H211.93V14.7168H207.93ZM209.93 23.3136H216.006V19.3136H209.93V23.3136ZM218.006 21.3136V14.7168H214.006V21.3136H218.006ZM216.006 12.7168H213.923V16.7168H216.006V12.7168ZM215.923 14.7168V7.59918H211.923V14.7168H215.923ZM213.923 9.59918H230.328V5.59918H213.923V9.59918ZM228.328 7.59918V14.7168H232.328V7.59918H228.328ZM58.9651 53.7168V55.7168H60.9651V53.7168H58.9651ZM56.7951 53.7168V51.7168H54.7951V53.7168H56.7951ZM56.7951 73.2468H54.7951V75.2468H56.7951V73.2468ZM58.9651 73.2468H60.9651V71.2468H58.9651V73.2468ZM58.9651 80.3644V82.3644H60.9651V80.3644H58.9651ZM42.5599 80.3644H40.5599V82.3644H42.5599V80.3644ZM42.5599 73.2468V71.2468H40.5599V73.2468H42.5599ZM44.6431 73.2468V75.2468H46.6431V73.2468H44.6431ZM44.6431 58.0568H46.6431L42.7442 57.4288L44.6431 58.0568ZM37.2651 80.3644V82.3644H38.7101L39.1639 80.9924L37.2651 80.3644ZM30.8419 80.3644L28.9505 81.0146L29.4146 82.3644H30.8419V80.3644ZM23.2469 58.2738L25.1382 57.6235L21.2469 58.2738H23.2469ZM23.2469 73.2468H21.2469V75.2468H23.2469V73.2468ZM25.3301 73.2468H27.3301V71.2468H25.3301V73.2468ZM25.3301 80.3644V82.3644H27.3301V80.3644H25.3301ZM11.0949 80.3644H9.09488V82.3644H11.0949V80.3644ZM11.0949 73.2468V71.2468H9.09488V73.2468H11.0949ZM13.2649 73.2468V75.2468H15.2649V73.2468H13.2649ZM13.2649 53.7168H15.2649V51.7168H13.2649V53.7168ZM11.0949 53.7168H9.09488V55.7168H11.0949V53.7168ZM11.0949 46.5992V44.5992H9.09488V46.5992H11.0949ZM30.9721 46.5992L32.8694 45.9667L32.4136 44.5992H30.9721V46.5992ZM35.4857 60.14L33.5883 60.7724L35.523 66.5764L37.3902 60.7504L35.4857 60.14ZM39.8257 46.5992V44.5992H38.3665L37.9211 45.9887L39.8257 46.5992ZM58.9651 46.5992H60.9651V44.5992H58.9651V46.5992ZM58.9651 51.7168H56.7951V55.7168H58.9651V51.7168ZM54.7951 53.7168V73.2468H58.7951V53.7168H54.7951ZM56.7951 75.2468H58.9651V71.2468H56.7951V75.2468ZM56.9651 73.2468V80.3644H60.9651V73.2468H56.9651ZM58.9651 78.3644H42.5599V82.3644H58.9651V78.3644ZM44.5599 80.3644V73.2468H40.5599V80.3644H44.5599ZM42.5599 75.2468H44.6431V71.2468H42.5599V75.2468ZM46.6431 73.2468V58.0568H42.6431V73.2468H46.6431ZM42.7442 57.4288L35.3662 79.7364L39.1639 80.9924L46.5419 58.6848L42.7442 57.4288ZM37.2651 78.3644H30.8419V82.3644H37.2651V78.3644ZM32.7332 79.7141L25.1382 57.6235L21.3555 58.924L28.9505 81.0146L32.7332 79.7141ZM21.2469 58.2738V73.2468H25.2469V58.2738H21.2469ZM23.2469 75.2468H25.3301V71.2468H23.2469V75.2468ZM23.3301 73.2468V80.3644H27.3301V73.2468H23.3301ZM25.3301 78.3644H11.0949V82.3644H25.3301V78.3644ZM13.0949 80.3644V73.2468H9.09488V80.3644H13.0949ZM11.0949 75.2468H13.2649V71.2468H11.0949V75.2468ZM15.2649 73.2468V53.7168H11.2649V73.2468H15.2649ZM13.2649 51.7168H11.0949V55.7168H13.2649V51.7168ZM13.0949 53.7168V46.5992H9.09488V53.7168H13.0949ZM11.0949 48.5992H30.9721V44.5992H11.0949V48.5992ZM29.0747 47.2316L33.5883 60.7724L37.383 59.5075L32.8694 45.9667L29.0747 47.2316ZM37.3902 60.7504L41.7302 47.2096L37.9211 45.9887L33.5811 59.5295L37.3902 60.7504ZM39.8257 48.5992H58.9651V44.5992H39.8257V48.5992ZM56.9651 46.5992V53.7168H60.9651V46.5992H56.9651ZM92.5384 73.2468L90.6101 73.7775L91.0145 75.2468H92.5384V73.2468ZM94.2744 73.2468H96.2744V71.2468H94.2744V73.2468ZM94.2744 80.3644V82.3644H96.2744V80.3644H94.2744ZM77.2616 80.3644H75.2616V82.3644H77.2616V80.3644ZM77.2616 73.2468V71.2468H75.2616V73.2468H77.2616ZM79.8656 73.2468V75.2468H82.3052L81.8267 72.8545L79.8656 73.2468ZM79.1712 69.7748L81.1323 69.3825L80.8108 67.7748H79.1712V69.7748ZM73.2688 69.7748V67.7748H71.6292L71.3076 69.3825L73.2688 69.7748ZM72.5744 73.2468L70.6132 72.8545L70.1348 75.2468H72.5744V73.2468ZM75.1784 73.2468H77.1784V71.2468H75.1784V73.2468ZM75.1784 80.3644V82.3644H77.1784V80.3644H75.1784ZM60.3356 80.3644H58.3356V82.3644H60.3356V80.3644ZM60.3356 73.2468V71.2468H58.3356V73.2468H60.3356ZM62.0716 73.2468V75.2468H63.5955L63.9999 73.7775L62.0716 73.2468ZM69.4062 46.5992V44.5992H67.8823L67.4779 46.0684L69.4062 46.5992ZM85.2038 46.5992L87.1321 46.0684L86.7277 44.5992H85.2038V46.5992ZM74.2236 65.1744L72.2647 64.7708L71.7695 67.1744H74.2236V65.1744ZM78.2164 65.1744V67.1744H80.6704L80.1752 64.7708L78.2164 65.1744ZM76.437 56.5378L78.3958 56.1342L78.0669 54.5378H76.437V56.5378ZM76.003 56.5378V54.5378H74.373L74.0441 56.1342L76.003 56.5378ZM92.5384 75.2468H94.2744V71.2468H92.5384V75.2468ZM92.2744 73.2468V80.3644H96.2744V73.2468H92.2744ZM94.2744 78.3644H77.2616V82.3644H94.2744V78.3644ZM79.2616 80.3644V73.2468H75.2616V80.3644H79.2616ZM77.2616 75.2468H79.8656V71.2468H77.2616V75.2468ZM81.8267 72.8545L81.1323 69.3825L77.21 70.167L77.9044 73.639L81.8267 72.8545ZM79.1712 67.7748H73.2688V71.7748H79.1712V67.7748ZM71.3076 69.3825L70.6132 72.8545L74.5355 73.639L75.2299 70.167L71.3076 69.3825ZM72.5744 75.2468H75.1784V71.2468H72.5744V75.2468ZM73.1784 73.2468V80.3644H77.1784V73.2468H73.1784ZM75.1784 78.3644H60.3356V82.3644H75.1784V78.3644ZM62.3356 80.3644V73.2468H58.3356V80.3644H62.3356ZM60.3356 75.2468H62.0716V71.2468H60.3356V75.2468ZM63.9999 73.7775L71.3345 47.1299L67.4779 46.0684L60.1433 72.716L63.9999 73.7775ZM69.4062 48.5992H85.2038V44.5992H69.4062V48.5992ZM83.2755 47.1299L90.6101 73.7775L94.4667 72.716L87.1321 46.0684L83.2755 47.1299ZM74.2236 67.1744H78.2164V63.1744H74.2236V67.1744ZM80.1752 64.7708L78.3958 56.1342L74.4781 56.9414L76.2575 65.578L80.1752 64.7708ZM76.437 54.5378H76.003V58.5378H76.437V54.5378ZM74.0441 56.1342L72.2647 64.7708L76.1824 65.578L77.9618 56.9414L74.0441 56.1342ZM95.6486 73.2468V71.2468H93.6486V73.2468H95.6486ZM97.8186 73.2468V75.2468H99.8186V73.2468H97.8186ZM97.8186 53.7602H99.8186V51.7602H97.8186V53.7602ZM95.6486 53.7602H93.6486V55.7602H95.6486V53.7602ZM95.6486 46.5992V44.5992H93.6486V46.5992H95.6486ZM124.77 50.592L123.401 52.0501L123.409 52.0573L123.417 52.0644L124.77 50.592ZM124.77 76.415L126.131 77.8806L126.131 77.88L124.77 76.415ZM95.6486 80.3644H93.6486V82.3644H95.6486V80.3644ZM114.701 72.4656L113.247 71.0923L113.247 71.0923L114.701 72.4656ZM109.971 53.7168V51.7168H107.971V53.7168H109.971ZM109.971 73.2468H107.971V75.2468H109.971V73.2468ZM95.6486 75.2468H97.8186V71.2468H95.6486V75.2468ZM99.8186 73.2468V53.7602H95.8186V73.2468H99.8186ZM97.8186 51.7602H95.6486V55.7602H97.8186V51.7602ZM97.6486 53.7602V46.5992H93.6486V53.7602H97.6486ZM95.6486 48.5992H113.269V44.5992H95.6486V48.5992ZM113.269 48.5992C117.721 48.5992 121.021 49.8157 123.401 52.0501L126.139 49.1338C122.848 46.0445 118.48 44.5992 113.269 44.5992V48.5992ZM123.417 52.0644C125.693 54.1566 127.067 57.7856 127.067 63.4818H131.067C131.067 57.2574 129.576 52.2933 126.123 49.1195L123.417 52.0644ZM127.067 63.4818C127.067 69.1756 125.694 72.8265 123.409 74.9499L126.131 77.88C129.575 74.6798 131.067 69.7085 131.067 63.4818H127.067ZM123.409 74.9494C121.03 77.1589 117.727 78.3644 113.269 78.3644V82.3644C118.474 82.3644 122.839 80.9369 126.131 77.8806L123.409 74.9494ZM113.269 78.3644H95.6486V82.3644H113.269V78.3644ZM97.6486 80.3644V73.2468H93.6486V80.3644H97.6486ZM112.488 75.2468C113.81 75.2468 115.161 74.8912 116.155 73.8388L113.247 71.0923C113.239 71.1008 113.211 71.1312 113.113 71.1655C113.005 71.2037 112.809 71.2468 112.488 71.2468V75.2468ZM116.155 73.8388C117.145 72.7907 117.439 71.3802 117.439 70.0352H113.439C113.439 70.4434 113.392 70.7162 113.341 70.8864C113.316 70.9689 113.291 71.021 113.275 71.0511C113.259 71.0801 113.248 71.0911 113.247 71.0923L116.155 73.8388ZM117.439 70.0352V56.9284H113.439V70.0352H117.439ZM117.439 56.9284C117.439 55.5895 117.135 54.2124 116.174 53.1664C115.183 52.0885 113.825 51.7168 112.488 51.7168V55.7168C112.804 55.7168 112.994 55.7603 113.097 55.7976C113.188 55.8308 113.217 55.8604 113.229 55.8729C113.251 55.8975 113.439 56.1262 113.439 56.9284H117.439ZM112.488 51.7168H109.971V55.7168H112.488V51.7168ZM107.971 53.7168V73.2468H111.971V53.7168H107.971ZM109.971 75.2468H112.488V71.2468H109.971V75.2468ZM155.528 46.5992V44.5992H153.528V46.5992H155.528ZM169.763 46.5992H171.763V44.5992H169.763V46.5992ZM169.763 53.7168V55.7168H171.763V53.7168H169.763ZM167.593 53.7168V51.7168H165.593V53.7168H167.593ZM167.593 80.3644V82.3644H169.593V80.3644H167.593ZM155.398 80.3644L153.721 81.454L154.312 82.3644H155.398V80.3644ZM142.682 60.791L144.359 59.7014L140.682 54.0414V60.791H142.682ZM142.682 73.2468H140.682V75.2468H142.682V73.2468ZM144.765 73.2468H146.765V71.2468H144.765V73.2468ZM144.765 80.3644V82.3644H146.765V80.3644H144.765ZM130.53 80.3644H128.53V82.3644H130.53V80.3644ZM130.53 73.2468V71.2468H128.53V73.2468H130.53ZM132.7 73.2468V75.2468H134.7V73.2468H132.7ZM132.7 53.7168H134.7V51.7168H132.7V53.7168ZM130.53 53.7168H128.53V55.7168H130.53V53.7168ZM130.53 46.5992V44.5992H128.53V46.5992H130.53ZM146.197 46.5992L147.869 45.5023L147.277 44.5992H146.197V46.5992ZM157.611 64.0026L155.939 65.0994L159.611 70.6988V64.0026H157.611ZM157.611 53.7168H159.611V51.7168H157.611V53.7168ZM155.528 53.7168H153.528V55.7168H155.528V53.7168ZM155.528 48.5992H169.763V44.5992H155.528V48.5992ZM167.763 46.5992V53.7168H171.763V46.5992H167.763ZM169.763 51.7168H167.593V55.7168H169.763V51.7168ZM165.593 53.7168V80.3644H169.593V53.7168H165.593ZM167.593 78.3644H155.398V82.3644H167.593V78.3644ZM157.075 79.2748L144.359 59.7014L141.005 61.8806L153.721 81.454L157.075 79.2748ZM140.682 60.791V73.2468H144.682V60.791H140.682ZM142.682 75.2468H144.765V71.2468H142.682V75.2468ZM142.765 73.2468V80.3644H146.765V73.2468H142.765ZM144.765 78.3644H130.53V82.3644H144.765V78.3644ZM132.53 80.3644V73.2468H128.53V80.3644H132.53ZM130.53 75.2468H132.7V71.2468H130.53V75.2468ZM134.7 73.2468V53.7168H130.7V73.2468H134.7ZM132.7 51.7168H130.53V55.7168H132.7V51.7168ZM132.53 53.7168V46.5992H128.53V53.7168H132.53ZM130.53 48.5992H146.197V44.5992H130.53V48.5992ZM144.525 47.696L155.939 65.0994L159.284 62.9057L147.869 45.5023L144.525 47.696ZM159.611 64.0026V53.7168H155.611V64.0026H159.611ZM157.611 51.7168H155.528V55.7168H157.611V51.7168ZM157.528 53.7168V46.5992H153.528V53.7168H157.528ZM171.429 80.3644H169.429V82.3644H171.429V80.3644ZM171.429 73.2468V71.2468H169.429V73.2468H171.429ZM173.599 73.2468V75.2468H175.599V73.2468H173.599ZM173.599 53.7168H175.599V51.7168H173.599V53.7168ZM171.429 53.7168H169.429V55.7168H171.429V53.7168ZM171.429 46.5992V44.5992H169.429V46.5992H171.429ZM200.724 46.5992H202.724V44.5992H200.724V46.5992ZM200.724 59.706V61.706H202.724V59.706H200.724ZM191.002 59.706H189.002V61.706H191.002V59.706ZM191.002 53.7168H193.002V51.7168H191.002V53.7168ZM185.751 53.7168V51.7168H183.751V53.7168H185.751ZM185.751 60.574H183.751V62.574H185.751V60.574ZM189.57 60.574H191.57V58.574H189.57V60.574ZM189.57 65.5216V67.5216H191.57V65.5216H189.57ZM185.751 65.5216V63.5216H183.751V65.5216H185.751ZM185.751 73.2468H183.751V75.2468H185.751V73.2468ZM191.002 73.2468V75.2468H193.002V73.2468H191.002ZM191.002 66.3896V64.3896H189.002V66.3896H191.002ZM200.724 66.3896H202.724V64.3896H200.724V66.3896ZM200.724 80.3644V82.3644H202.724V80.3644H200.724ZM173.429 80.3644V73.2468H169.429V80.3644H173.429ZM171.429 75.2468H173.599V71.2468H171.429V75.2468ZM175.599 73.2468V53.7168H171.599V73.2468H175.599ZM173.599 51.7168H171.429V55.7168H173.599V51.7168ZM173.429 53.7168V46.5992H169.429V53.7168H173.429ZM171.429 48.5992H200.724V44.5992H171.429V48.5992ZM198.724 46.5992V59.706H202.724V46.5992H198.724ZM200.724 57.706H191.002V61.706H200.724V57.706ZM193.002 59.706V53.7168H189.002V59.706H193.002ZM191.002 51.7168H185.751V55.7168H191.002V51.7168ZM183.751 53.7168V60.574H187.751V53.7168H183.751ZM185.751 62.574H189.57V58.574H185.751V62.574ZM187.57 60.574V65.5216H191.57V60.574H187.57ZM189.57 63.5216H185.751V67.5216H189.57V63.5216ZM183.751 65.5216V73.2468H187.751V65.5216H183.751ZM185.751 75.2468H191.002V71.2468H185.751V75.2468ZM193.002 73.2468V66.3896H189.002V73.2468H193.002ZM191.002 68.3896H200.724V64.3896H191.002V68.3896ZM198.724 66.3896V80.3644H202.724V66.3896H198.724ZM200.724 78.3644H171.429V82.3644H200.724V78.3644ZM207.924 80.2776L207.531 82.2387L207.545 82.2414L207.558 82.2438L207.924 80.2776ZM202.238 78.6284H200.238V79.9139L201.408 80.4478L202.238 78.6284ZM202.238 70.0352V68.0352H200.238V70.0352H202.238ZM211.786 70.0352H213.786V68.0352H211.786V70.0352ZM212.394 71.9882L210.98 73.4024L210.98 73.4024L212.394 71.9882ZM216.517 72.2052L217.655 73.8496L217.667 73.8412L217.679 73.8326L216.517 72.2052ZM216.56 69.7748L215.204 71.2444L215.235 71.2737L215.268 71.3016L216.56 69.7748ZM214.607 68.7332L215.31 66.8605L215.288 66.8524L215.266 66.8448L214.607 68.7332ZM210.875 67.4312L210.167 69.3018L210.192 69.311L210.216 69.3196L210.875 67.4312ZM203.931 63.1346L202.401 64.4229L202.408 64.4306L202.414 64.4384L203.931 63.1346ZM205.19 48.6824L206.431 50.2501L206.434 50.248L205.19 48.6824ZM223.504 46.7728L223.043 48.7189L223.058 48.7225L223.073 48.7257L223.504 46.7728ZM228.886 48.7692H230.886V47.6531L229.936 47.0671L228.886 48.7692ZM228.886 56.5378V58.5378H230.886V56.5378H228.886ZM220.206 56.5378H218.206V58.5378H220.206V56.5378ZM215.649 54.715L216.657 56.4425L216.677 56.4307L216.697 56.4183L215.649 54.715ZM215.736 57.0152L214.573 58.6426L214.599 58.6614L214.626 58.6793L215.736 57.0152ZM217.819 57.9266L218.471 56.0358L218.461 56.0325L218.451 56.0292L217.819 57.9266ZM221.595 59.2286L220.943 61.1193L220.952 61.1223L221.595 59.2286ZM228.278 63.3082L226.738 64.5833L226.749 64.5977L226.762 64.612L228.278 63.3082ZM226.673 78.151L225.467 76.5554L225.458 76.5623L226.673 78.151ZM215.823 78.972C213.156 78.972 210.646 78.7498 208.29 78.3113L207.558 82.2438C210.178 82.7313 212.934 82.972 215.823 82.972V78.972ZM208.316 78.3164C205.917 77.8366 204.195 77.3231 203.069 76.809L201.408 80.4478C202.944 81.1489 205.012 81.7348 207.531 82.2387L208.316 78.3164ZM204.238 78.6284V70.0352H200.238V78.6284H204.238ZM202.238 72.0352H211.786V68.0352H202.238V72.0352ZM209.786 70.0352C209.786 71.1711 210.034 72.457 210.98 73.4024L213.808 70.574C213.875 70.6404 213.871 70.6766 213.848 70.602C213.822 70.5186 213.786 70.3418 213.786 70.0352H209.786ZM210.98 73.4024C211.976 74.3982 213.42 74.5958 214.607 74.5958V70.5958C214.186 70.5958 213.924 70.5545 213.781 70.5152C213.638 70.4761 213.697 70.4624 213.808 70.574L210.98 73.4024ZM214.607 74.5958C215.584 74.5958 216.751 74.4759 217.655 73.8496L215.379 70.5608C215.485 70.487 215.513 70.5067 215.357 70.5387C215.209 70.5688 214.968 70.5958 214.607 70.5958V74.5958ZM217.679 73.8326C218.671 73.1245 219.125 72.0638 219.125 70.9466H215.125C215.125 70.9741 215.12 70.91 215.172 70.804C215.226 70.6909 215.303 70.6143 215.354 70.5777L217.679 73.8326ZM219.125 70.9466C219.125 69.8535 218.645 68.9184 217.852 68.248L215.268 71.3016C215.271 71.304 215.225 71.2642 215.181 71.1741C215.136 71.0805 215.125 70.9947 215.125 70.9466H219.125ZM217.917 68.3052C217.246 67.6863 216.294 67.2299 215.31 66.8605L213.905 70.6058C214.772 70.9309 215.122 71.1689 215.204 71.2444L217.917 68.3052ZM215.266 66.8448L211.534 65.5428L210.216 69.3196L213.949 70.6216L215.266 66.8448ZM211.583 65.5606C208.52 64.4019 206.556 63.1206 205.448 61.8308L202.414 64.4384C204.141 66.4469 206.806 68.0301 210.167 69.3018L211.583 65.5606ZM205.461 61.8463C204.457 60.6547 203.848 58.9306 203.848 56.451H199.848C199.848 59.5844 200.627 62.3161 202.401 64.4229L205.461 61.8463ZM203.848 56.451C203.848 53.511 204.78 51.5581 206.431 50.2501L203.948 47.1147C201.143 49.3365 199.848 52.5627 199.848 56.451H203.848ZM206.434 50.248C208.147 48.8868 211.32 47.9916 216.43 47.9916V43.9916C211.067 43.9916 206.746 44.8903 203.945 47.1167L206.434 50.248ZM216.43 47.9916C218.809 47.9916 221.011 48.2377 223.043 48.7189L223.965 44.8266C221.599 44.2663 219.085 43.9916 216.43 43.9916V47.9916ZM223.073 48.7257C225.168 49.1882 226.729 49.7886 227.836 50.4712L229.936 47.0671C228.323 46.0717 226.297 45.3411 223.935 44.8198L223.073 48.7257ZM226.886 48.7692V56.5378H230.886V48.7692H226.886ZM228.886 54.5378H220.206V58.5378H228.886V54.5378ZM222.206 56.5378C222.206 55.3786 221.825 54.1895 220.789 53.3535C219.834 52.5837 218.629 52.3678 217.515 52.3678V56.3678C217.836 56.3678 218.047 56.4008 218.173 56.4348C218.296 56.4678 218.311 56.4936 218.278 56.4671C218.236 56.4334 218.203 56.3848 218.189 56.3524C218.181 56.3322 218.206 56.3792 218.206 56.5378H222.206ZM217.515 52.3678C216.573 52.3678 215.473 52.4746 214.601 53.0117L216.697 56.4183C216.606 56.4742 216.598 56.4516 216.763 56.4208C216.919 56.3919 217.162 56.3678 217.515 56.3678V52.3678ZM214.641 52.9874C213.462 53.6754 213.128 54.8767 213.128 55.8434H217.128C217.128 55.7678 217.142 55.8413 217.074 55.9871C216.995 56.1592 216.849 56.3305 216.657 56.4425L214.641 52.9874ZM213.128 55.8434C213.128 56.9904 213.65 57.9833 214.573 58.6426L216.898 55.3877C216.919 55.4025 216.993 55.4641 217.056 55.5846C217.118 55.7059 217.128 55.8072 217.128 55.8434H213.128ZM214.626 58.6793C215.288 59.1205 216.189 59.4913 217.186 59.8239L218.451 56.0292C217.54 55.7253 217.051 55.4885 216.845 55.3511L214.626 58.6793ZM217.167 59.8173L220.943 61.1193L222.247 57.3378L218.471 56.0358L217.167 59.8173ZM220.952 61.1223C223.827 62.099 225.673 63.2972 226.738 64.5833L229.819 62.033C228.106 59.9629 225.496 58.4413 222.238 57.3348L220.952 61.1223ZM226.762 64.612C227.799 65.8181 228.405 67.4881 228.405 69.8182H232.405C232.405 66.7666 231.594 64.0966 229.795 62.0044L226.762 64.612ZM228.405 69.8182C228.405 72.9919 227.362 75.1228 225.467 76.5554L227.878 79.7465C230.96 77.4178 232.405 73.9936 232.405 69.8182H228.405ZM225.458 76.5623C223.491 78.0662 220.382 78.972 215.823 78.972V82.972C220.811 82.972 224.935 81.9971 227.887 79.7397L225.458 76.5623ZM237.168 80.2776L236.776 82.2387L236.789 82.2414L236.802 82.2438L237.168 80.2776ZM231.482 78.6284H229.482V79.9139L230.652 80.4478L231.482 78.6284ZM231.482 70.0352V68.0352H229.482V70.0352H231.482ZM241.03 70.0352H243.03V68.0352H241.03V70.0352ZM241.638 71.9882L240.224 73.4024L240.224 73.4024L241.638 71.9882ZM245.761 72.2052L246.899 73.8496L246.912 73.8412L246.924 73.8326L245.761 72.2052ZM245.804 69.7748L244.448 71.2444L244.48 71.2737L244.513 71.3016L245.804 69.7748ZM243.851 68.7332L244.554 66.8605L244.532 66.8524L244.51 66.8448L243.851 68.7332ZM240.119 67.4312L239.411 69.3018L239.436 69.311L239.46 69.3196L240.119 67.4312ZM233.175 63.1346L231.645 64.4229L231.652 64.4306L231.658 64.4384L233.175 63.1346ZM234.434 48.6824L235.676 50.2501L235.678 50.248L234.434 48.6824ZM252.748 46.7728L252.288 48.7189L252.302 48.7225L252.317 48.7257L252.748 46.7728ZM258.13 48.7692H260.13V47.6531L259.18 47.0671L258.13 48.7692ZM258.13 56.5378V58.5378H260.13V56.5378H258.13ZM249.45 56.5378H247.45V58.5378H249.45V56.5378ZM244.893 54.715L245.901 56.4425L245.921 56.4307L245.941 56.4183L244.893 54.715ZM244.98 57.0152L243.817 58.6426L243.844 58.6614L243.87 58.6793L244.98 57.0152ZM247.063 57.9266L247.715 56.0358L247.705 56.0325L247.696 56.0292L247.063 57.9266ZM250.839 59.2286L250.187 61.1193L250.196 61.1223L250.839 59.2286ZM257.522 63.3082L255.982 64.5833L255.994 64.5977L256.006 64.612L257.522 63.3082ZM255.917 78.151L254.711 76.5554L254.702 76.5623L255.917 78.151ZM245.067 78.972C242.4 78.972 239.89 78.7498 237.534 78.3113L236.802 82.2438C239.422 82.7313 242.178 82.972 245.067 82.972V78.972ZM237.56 78.3164C235.161 77.8366 233.439 77.3231 232.313 76.809L230.652 80.4478C232.188 81.1489 234.256 81.7348 236.776 82.2387L237.56 78.3164ZM233.482 78.6284V70.0352H229.482V78.6284H233.482ZM231.482 72.0352H241.03V68.0352H231.482V72.0352ZM239.03 70.0352C239.03 71.1711 239.278 72.457 240.224 73.4024L243.052 70.574C243.119 70.6404 243.115 70.6766 243.092 70.602C243.066 70.5186 243.03 70.3418 243.03 70.0352H239.03ZM240.224 73.4024C241.22 74.3982 242.664 74.5958 243.851 74.5958V70.5958C243.43 70.5958 243.168 70.5545 243.025 70.5152C242.882 70.4761 242.941 70.4624 243.052 70.574L240.224 73.4024ZM243.851 74.5958C244.828 74.5958 245.995 74.4759 246.899 73.8496L244.623 70.5608C244.729 70.487 244.757 70.5067 244.601 70.5387C244.453 70.5688 244.212 70.5958 243.851 70.5958V74.5958ZM246.924 73.8326C247.915 73.1245 248.369 72.0638 248.369 70.9466H244.369C244.369 70.9741 244.364 70.91 244.416 70.804C244.47 70.6909 244.547 70.6143 244.599 70.5777L246.924 73.8326ZM248.369 70.9466C248.369 69.8535 247.889 68.9184 247.096 68.248L244.513 71.3016C244.515 71.304 244.469 71.2642 244.426 71.1741C244.381 71.0805 244.369 70.9947 244.369 70.9466H248.369ZM247.161 68.3052C246.491 67.6863 245.539 67.2299 244.554 66.8605L243.149 70.6058C244.016 70.9309 244.366 71.1689 244.448 71.2444L247.161 68.3052ZM244.51 66.8448L240.778 65.5428L239.46 69.3196L243.193 70.6216L244.51 66.8448ZM240.827 65.5606C237.765 64.4019 235.8 63.1206 234.692 61.8308L231.658 64.4384C233.385 66.4469 236.05 68.0301 239.411 69.3018L240.827 65.5606ZM234.705 61.8463C233.701 60.6547 233.092 58.9306 233.092 56.451H229.092C229.092 59.5844 229.871 62.3161 231.645 64.4229L234.705 61.8463ZM233.092 56.451C233.092 53.511 234.024 51.5581 235.676 50.2501L233.192 47.1147C230.387 49.3365 229.092 52.5627 229.092 56.451H233.092ZM235.678 50.248C237.391 48.8868 240.564 47.9916 245.674 47.9916V43.9916C240.311 43.9916 235.99 44.8903 233.189 47.1167L235.678 50.248ZM245.674 47.9916C248.054 47.9916 250.256 48.2377 252.288 48.7189L253.209 44.8266C250.843 44.2663 248.329 43.9916 245.674 43.9916V47.9916ZM252.317 48.7257C254.412 49.1882 255.973 49.7886 257.08 50.4712L259.18 47.0671C257.567 46.0717 255.541 45.3411 253.18 44.8198L252.317 48.7257ZM256.13 48.7692V56.5378H260.13V48.7692H256.13ZM258.13 54.5378H249.45V58.5378H258.13V54.5378ZM251.45 56.5378C251.45 55.3786 251.07 54.1895 250.033 53.3535C249.078 52.5837 247.873 52.3678 246.759 52.3678V56.3678C247.08 56.3678 247.291 56.4008 247.417 56.4348C247.54 56.4678 247.555 56.4936 247.522 56.4671C247.48 56.4334 247.447 56.3848 247.434 56.3524C247.425 56.3322 247.45 56.3792 247.45 56.5378H251.45ZM246.759 52.3678C245.817 52.3678 244.718 52.4746 243.845 53.0117L245.941 56.4183C245.85 56.4742 245.842 56.4516 246.008 56.4208C246.163 56.3919 246.406 56.3678 246.759 56.3678V52.3678ZM243.885 52.9874C242.706 53.6754 242.372 54.8767 242.372 55.8434H246.372C246.372 55.7678 246.386 55.8413 246.318 55.9871C246.239 56.1592 246.093 56.3305 245.901 56.4425L243.885 52.9874ZM242.372 55.8434C242.372 56.9904 242.894 57.9833 243.817 58.6426L246.142 55.3877C246.163 55.4025 246.237 55.4641 246.3 55.5846C246.363 55.7059 246.372 55.8072 246.372 55.8434H242.372ZM243.87 58.6793C244.532 59.1205 245.433 59.4913 246.431 59.8239L247.696 56.0292C246.784 55.7253 246.295 55.4885 246.089 55.3511L243.87 58.6793ZM246.411 59.8173L250.187 61.1193L251.491 57.3378L247.715 56.0358L246.411 59.8173ZM250.196 61.1223C253.071 62.099 254.917 63.2972 255.982 64.5833L259.063 62.033C257.35 59.9629 254.74 58.4413 251.482 57.3348L250.196 61.1223ZM256.006 64.612C257.043 65.8181 257.649 67.4881 257.649 69.8182H261.649C261.649 66.7666 260.838 64.0966 259.039 62.0044L256.006 64.612ZM257.649 69.8182C257.649 72.9919 256.606 75.1228 254.711 76.5554L257.123 79.7465C260.204 77.4178 261.649 73.9936 261.649 69.8182H257.649ZM254.702 76.5623C252.735 78.0662 249.626 78.972 245.067 78.972V82.972C250.056 82.972 254.18 81.9971 257.132 79.7397L254.702 76.5623Z" fill="black"/>
<path d="M293.561 64V111.587L268.803 88.4795V43L293.561 64Z" fill="black" stroke="black"/>
<path d="M270.5 27L241.5 1H238V43L270.5 44V27Z" fill="black" stroke="black"/>
</svg>
